<?xml version="1.0" encoding="UTF-8" standalone="no"?>
<svg
   xmlns:dc="http://purl.org/dc/elements/1.1/"
   xmlns:cc="http://creativecommons.org/ns#"
   xmlns:rdf="http://www.w3.org/1999/02/22-rdf-syntax-ns#"
   xmlns:svg="http://www.w3.org/2000/svg"
   xmlns="http://www.w3.org/2000/svg"
   viewBox="0 0 500 500"
   height="500"
   width="500"
   xml:space="preserve"
   id="svg2"
   version="1.1"><metadata
     id="metadata8"><rdf:RDF><cc:Work
         rdf:about=""><dc:format>image/svg+xml</dc:format><dc:type
           rdf:resource="http://purl.org/dc/dcmitype/StillImage" /></cc:Work></rdf:RDF></metadata><defs
     id="defs6"><clipPath
       id="clipPath14"
       clipPathUnits="userSpaceOnUse"><path
         id="path12"
         d="M 0,8.039989 H 375 V 383.03998 H 0 Z" /></clipPath><clipPath
       id="clipPath24"
       clipPathUnits="userSpaceOnUse"><path
         style="clip-rule:evenodd"
         id="path22"
         d="M 0,0 H 1562.5 V 1593.75 H 0 Z" /></clipPath><clipPath
       id="clipPath38"
       clipPathUnits="userSpaceOnUse"><path
         style="clip-rule:evenodd"
         id="path36"
         d="M 0,0 H 1562.5 V 1562.5 H 0 Z" /></clipPath><clipPath
       id="clipPath50"
       clipPathUnits="userSpaceOnUse"><path
         style="clip-rule:evenodd"
         id="path48"
         d="M 0,0 H 1562.5 V 1562.5 H 0 Z" /></clipPath><clipPath
       id="clipPath62"
       clipPathUnits="userSpaceOnUse"><path
         style="clip-rule:evenodd"
         id="path60"
         d="m 282.61343,156.25 h 968.74997 v 871.875 H 282.61343 Z" /></clipPath><clipPath
       id="clipPath74"
       clipPathUnits="userSpaceOnUse"><path
         style="clip-rule:evenodd"
         id="path72"
         d="M 0,0 H 1562.5 V 1562.5 H 0 Z" /></clipPath></defs><g
     clip-path="url(#clipPath14)"
     transform="matrix(1.3333333,0,0,-1.3333333,0,510.71997)"
     id="g10"><g
       transform="matrix(0.31999998,0,0,0.31999998,0,9.434666e-6)"
       id="g16"><g
         id="g18"><g
           clip-path="url(#clipPath24)"
           id="g20"><g
             transform="scale(3.125)"
             id="g26"><path
               id="path28"
               style="fill:#ffffff;fill-opacity:1;fill-rule:nonzero;stroke:none"
               d="M 0,0 H 500 V 510 H 0 Z" /><path
               id="path30"
               style="fill:#ffffff;fill-opacity:1;fill-rule:nonzero;stroke:none"
               d="M 0,0 H 500 V 500 H 0 Z" /></g></g></g><g
         id="g32"><g
           clip-path="url(#clipPath38)"
           id="g34"><g
             transform="scale(3.125)"
             id="g40"><path
               id="path42"
               style="fill:#ffffff;fill-opacity:1;fill-rule:nonzero;stroke:none"
               d="M 0,0 H 500 V 500 H 0 Z" /></g></g></g><g
         id="g44"><g
           clip-path="url(#clipPath50)"
           id="g46"><g
             transform="matrix(3.0616286,0,0,3.0616286,0,8.3677158)"
             id="g52"><path
               id="path54"
               style="fill:#000000;fill-opacity:1;fill-rule:nonzero;stroke:none"
               d="m 250.2,500.39999 c -66.80001,0 -129.7,-26 -176.899997,-73.29998 C 26,379.89999 0,317 0,250.2 0,183.39999 26,120.5 73.300003,73.300003 120.5,26 183.39999,0 250.2,0 317,0 379.89999,26 427.10001,73.300003 474.39999,120.6 500.39999,183.39999 500.39999,250.2 c 0,66.8 -26,129.69999 -73.29998,176.90001 C 379.89999,474.39999 317,500.39999 250.2,500.39999 M 250.2,15 C 187.39999,15 128.3,39.5 83.900002,83.900002 39.5,128.3 15,187.39999 15,250.2 15,313 39.5,372.10001 83.900002,416.5 128.3,460.89999 187.39999,485.39999 250.2,485.39999 c 62.8,0 121.90001,-24.5 166.3,-68.89999 44.39999,-44.39999 68.89999,-103.5 68.89999,-166.3 0,-62.80001 -24.5,-121.9 -68.89999,-166.299998 C 372.10001,39.5 313,15 250.2,15" /></g></g></g><g
         id="g56"><g
           clip-path="url(#clipPath62)"
           id="g58"><g
             transform="matrix(0.09528875,0,0,-0.09531814,282.68335,602.24353)"
             id="g64"><path
               id="path66"
               style="fill:#000000;fill-opacity:1;fill-rule:nonzero;stroke:none"
               d="m 1353.4,4618.1001 c -101.5,-99.6001 -114.9,-84.2002 767.7001,-968.7 809.8,-811.6999 813.6001,-817.4001 807.8999,-888.3 -7.7,-90 -82.3,-155.1001 -151.2,-134 -24.8999,7.6999 -403.8999,369.5 -840.4,804 -704.5,702.6001 -848.0999,832.7998 -920.8,832.7998 -9.5999,0 -40.19998,-21.1001 -65.09994,-47.8999 -101.5,-99.6001 -114.90002,-84.2002 767.70004,-968.7 809.7999,-811.6999 813.5999,-817.4001 807.9,-888.3 -7.7,-90 -82.3001,-155.1001 -151.2,-134 -24.8999,7.7 -403.9,369.5 -840.4,804 -704.49998,702.6001 -848.09995,832.8 -920.79997,832.8 -9.59997,0 -40.20001,-21.1 -65.09997,-47.8999 -101.5,-99.6001 -114.9,-84.1999 767.70004,-968.6999 809.7999,-811.7 813.5999,-817.4 807.9,-888.3001 -7.7,-90 -82.3001,-155.0999 -151.2,-134 -24.9,7.7 -403.9,369.5 -840.4,804 -704.49998,702.5999 -848.09996,832.8001 -920.79997,832.8001 -9.6,0 -40.2,-21.1001 -65.1,-47.8999 C 42.099998,3308.6001 -0.1,3358.3999 1290.2,2066.2 1948.7,1407.6 2515.3999,856.29993 2553.7,835.19995 c 118.6999,-61.29999 245,-49.79999 419.1999,40.20001 180,91.90003 291,101.5 415.3999,34.5 49.8001,-28.70001 285.3001,-266.10003 637.5,-645.09997 L 4583,-336.39999 l -63.2002,-61.29999 c -36.3999,-34.5 -809.8,-754.30002 -1721,-1596.59992 -911.1999,-844.3 -1671.3,-1560.2001 -1690.4,-1590.9001 -47.9,-76.6 -46,-212.5 3.8,-291 21.1,-34.5 143.6,-168.5 273.8,-294.8 264.1999,-262.2998 327.4,-296.7002 469,-258.3999 72.6999,21 224,176.1001 1665.5,1728.6999 871.0002,940 1594.6999,1719.10002 1604.3,1734.40007 C 5142,-947.09991 5488.5,-1309 6711.7998,-2624.2 c 859.5,-926.5998 1587,-1694.1999 1611.9004,-1705.6999 65.0996,-28.7002 191.4004,-26.7998 252.7002,5.7998 84.2002,44 516.9004,493.8999 530.2998,553.2 21,78.5 0,201 -42.0996,247 -19.2002,23 -783,737 -1700,1590.9 C 6449.5,-1081.1 5699.1001,-376.60001 5699.1001,-368.89999 c 0,7.70001 220.2002,252.69999 488.2002,543.70001 589.6001,637.50003 597.2998,643.19998 861.5,608.79996 758.1001,-101.5 1487.5005,170.40002 2059.8999,765.79992 890.2002,928.5 1056.6998,2132.6001 359.9004,2630.3999 -254.5996,181.8999 -570.5,247 -938.0996,193.3999 -465.2002,-67 -892.1001,-269.8999 -1319,-629.8 -482.3999,-403.8999 -804.1001,-926.5999 -911.2998,-1479.8001 -28.7002,-153.1999 -34.5,-543.6999 -9.6001,-760 26.7998,-231.6 23,-237.4 -616.3999,-828.90002 -300.6001,-279.5 -553.2998,-505.39999 -562.7998,-503.5 -7.6001,3.80001 -291,264.20002 -629.7998,578.09998 -400.1001,371.40004 -624.1001,595.40004 -641.3001,635.59994 -49.8,116.8001 -34.5,237.4001 49.8001,411.6 80.3999,166.5 91.8999,239.3001 55.5,371.3999 -17.2,65.1001 -187.6001,243.1001 -1171.6001,1232.8999 C 2140.2,4036.1001 1587,4579.7998 1546.8001,4610.3999 c -91.9001,67 -134,68.8999 -193.4001,7.7002 z" /></g></g></g><g
         id="g68"><g
           clip-path="url(#clipPath74)"
           id="g70"><g
             transform="matrix(3.125,0,0,3.125,161.20831,999.93628)"
             id="g76"><text
               id="text80"
               style="font-variant:normal;font-weight:bold;font-size:45.33000183px;font-family:Montserrat;-inkscape-font-specification:Montserrat-Bold;writing-mode:lr-tb;fill:#000000;fill-opacity:1;fill-rule:nonzero;stroke:none"
               transform="translate(75.09375,45)"><tspan
                 id="tspan78"
                 y="0"
                 x="0 44.421936 82.497925 121.29916 158.15129 191.87578">MANGER</tspan></text>
<text
               id="text84"
               style="font-variant:normal;font-weight:bold;font-size:34.65999985px;font-family:Montserrat;-inkscape-font-specification:Montserrat-Bold;writing-mode:lr-tb;fill:#000000;fill-opacity:1;fill-rule:nonzero;stroke:none"
               transform="translate(28.3125,87)"><tspan
                 id="tspan82"
                 y="0"
                 x="0 24.745317 53.857319 67.304695 96.971199 120.57285 135.96098 165.07298 194.73949 218.34114 248.66612 278.33264 291.78003">SAINT-ANTONIN</tspan></text>
</g></g></g></g></g></svg>