<?xml version="1.0" encoding="UTF-8" standalone="no"?>
<!-- Created with Inkscape (http://www.inkscape.org/) -->

<svg
   width="114.57707mm"
   height="20.410332mm"
   viewBox="0 0 114.57707 20.410332"
   version="1.1"
   id="svg5"
   inkscape:version="1.1.1 (3bf5ae0d25, 2021-09-20)"
   sodipodi:docname="ecompte.svg"
   xmlns:inkscape="http://www.inkscape.org/namespaces/inkscape"
   xmlns:sodipodi="http://sodipodi.sourceforge.net/DTD/sodipodi-0.dtd"
   xmlns="http://www.w3.org/2000/svg"
   xmlns:svg="http://www.w3.org/2000/svg">
  <sodipodi:namedview
     id="namedview7"
     pagecolor="#505050"
     bordercolor="#eeeeee"
     borderopacity="1"
     inkscape:pageshadow="0"
     inkscape:pageopacity="0"
     inkscape:pagecheckerboard="0"
     inkscape:document-units="mm"
     showgrid="false"
     inkscape:zoom="1.326252"
     inkscape:cx="38.077228"
     inkscape:cy="135.72081"
     inkscape:window-width="1920"
     inkscape:window-height="995"
     inkscape:window-x="-9"
     inkscape:window-y="-9"
     inkscape:window-maximized="1"
     inkscape:current-layer="layer1" />
  <defs
     id="defs2" />
  <g
     inkscape:label="Calque 1"
     inkscape:groupmode="layer"
     id="layer1"
     transform="translate(-53.114428,-78.099015)">
    <g
       aria-label="ÉCOMPTE "
       id="text1838"
       style="font-size:22.5778px;line-height:1.25;stroke-width:0.264583">
      <path
         d="m 55.823764,89.049249 h 7.857075 v 2.415825 h -7.857075 z m 0.225778,6.77334 h 8.918232 v 2.46098 H 53.114428 v -15.80446 h 11.537256 v 2.46098 h -8.602142 z m 0.970846,-14.630415 3.048003,-3.093159 h 3.318937 l -3.928538,3.093159 z"
         style="font-weight:600;-inkscape-font-specification:'Montserrat Semi-Bold';fill:#4c8577"
         id="path864" />
      <path
         d="m 75.556678,98.509347 q -1.806225,0 -3.364093,-0.587022 -1.53529,-0.609601 -2.686758,-1.693336 -1.12889,-1.106312 -1.761069,-2.596447 -0.632178,-1.490134 -0.632178,-3.251203 0,-1.761068 0.632178,-3.251203 0.632179,-1.490135 1.783647,-2.57387 1.151468,-1.106312 2.686758,-1.693335 1.53529,-0.6096 3.364092,-0.6096 1.941691,0 3.544715,0.677334 1.603024,0.654756 2.709336,1.964268 L 79.936771,86.67858 Q 79.078814,85.75289 78.017658,85.301334 76.956501,84.8272 75.714722,84.8272 q -1.241779,0 -2.280358,0.406401 -1.016001,0.4064 -1.783646,1.151467 -0.745067,0.745068 -1.174046,1.761069 -0.4064,1.016001 -0.4064,2.235202 0,1.219201 0.4064,2.235202 0.428979,1.016001 1.174046,1.761069 0.767645,0.745067 1.783646,1.151468 1.038579,0.4064 2.280358,0.4064 1.241779,0 2.302936,-0.451556 1.061156,-0.474134 1.919113,-1.422401 l 1.896535,1.806224 q -1.106312,1.286934 -2.709336,1.964268 -1.603024,0.677334 -3.567292,0.677334 z"
         style="font-weight:600;-inkscape-font-specification:'Montserrat Semi-Bold';fill:#4c8577"
         id="path866" />
      <path
         d="m 91.722336,98.509347 q -1.85138,0 -3.409248,-0.6096 -1.557868,-0.609601 -2.709336,-1.693335 -1.151468,-1.106313 -1.783647,-2.57387 -0.632178,-1.490134 -0.632178,-3.251203 0,-1.761068 0.632178,-3.228625 0.632179,-1.490135 1.783647,-2.57387 1.151468,-1.106312 2.709336,-1.715913 1.557868,-0.6096 3.38667,-0.6096 1.85138,0 3.38667,0.6096 1.557868,0.609601 2.709336,1.715913 1.151468,1.083735 1.783646,2.57387 0.63218,1.467557 0.63218,3.228625 0,1.761069 -0.63218,3.251203 -0.632178,1.490135 -1.783646,2.57387 -1.151468,1.083734 -2.709336,1.693335 -1.53529,0.6096 -3.364092,0.6096 z m -0.02258,-2.573869 q 1.196623,0 2.212624,-0.4064 1.016001,-0.406401 1.761069,-1.151468 0.745067,-0.767645 1.151468,-1.761069 0.428978,-1.016001 0.428978,-2.235202 0,-1.219201 -0.428978,-2.212624 -0.406401,-1.016001 -1.151468,-1.761069 -0.745068,-0.767645 -1.761069,-1.174045 -1.016001,-0.406401 -2.212624,-0.406401 -1.196624,0 -2.212625,0.406401 -0.993423,0.4064 -1.761068,1.174045 -0.745067,0.745068 -1.174046,1.761069 -0.4064,0.993423 -0.4064,2.212624 0,1.196624 0.4064,2.212625 0.428979,1.016001 1.174046,1.783646 0.745067,0.745067 1.761068,1.151468 1.016001,0.4064 2.212625,0.4064 z"
         style="font-weight:600;-inkscape-font-specification:'Montserrat Semi-Bold';fill:#4c8577"
         id="path868" />
      <path
         d="m 102.13068,98.283569 3.16089,-15.80446 h 2.39325 l 4.60587,11.582412 -1.24178,-0.02258 9.00854,-11.559834 h 2.52872 l -3.16089,15.80446 h -2.77707 l 2.28035,-11.514678 0.65476,0.02258 -7.6313,9.685876 h -1.30951 l -3.99627,-9.708454 0.56445,0.06773 -2.28036,11.446945 z"
         style="fill:#ffffff"
         id="path870" />
      <path
         d="m 123.69248,98.283569 3.16089,-15.80446 h 6.09601 q 2.86738,0 4.42525,1.264357 1.58044,1.264356 1.58044,3.499559 0,2.009424 -0.92569,3.476981 -0.90311,1.444979 -2.59645,2.235202 -1.69333,0.767646 -4.01884,0.767646 h -5.14774 l 1.55787,-1.399824 -1.19663,5.960539 z m 4.064,-5.621872 -1.03858,-1.422401 h 4.80908 q 2.12231,0 3.29635,-0.948268 1.17405,-0.948268 1.17405,-2.77707 0,-1.286934 -0.88053,-1.919113 -0.85796,-0.632178 -2.48356,-0.632178 h -4.5833 l 1.53529,-1.467557 z"
         style="fill:#ffffff"
         id="path872" />
      <path
         d="m 142.60757,98.283569 2.66418,-13.320902 h -5.23805 l 0.49671,-2.483558 h 13.38864 l -0.49671,2.483558 h -5.23805 l -2.6416,13.320902 z"
         style="fill:#ffffff"
         id="path874" />
      <path
         d="m 157.53149,89.049249 h 7.87965 l -0.47413,2.415825 h -7.87965 z m -1.12889,6.77334 h 8.94081 l -0.49671,2.46098 h -11.85335 l 3.16089,-15.80446 h 11.53726 l -0.49671,2.46098 h -8.62472 z"
         style="fill:#ffffff"
         id="path876" />
    </g>
  </g>
</svg>
